<?xml version="1.0" standalone="no"?>
<!DOCTYPE svg PUBLIC "-//W3C//DTD SVG 20010904//EN"
 "http://www.w3.org/TR/2001/REC-SVG-20010904/DTD/svg10.dtd">
<svg version="1.0" xmlns="http://www.w3.org/2000/svg"
 width="168.000000pt" height="167.000000pt" viewBox="0 0 168.000000 167.000000"
 preserveAspectRatio="xMidYMid meet">

<g transform="translate(0.000000,167.000000) scale(0.100000,-0.100000)"
fill="#000000" stroke="none">
<path d="M720 1660 c-164 -23 -329 -102 -451 -218 -120 -112 -188 -222 -235
-379 -24 -76 -27 -106 -28 -223 0 -110 4 -149 22 -214 67 -233 225 -426 437
-531 140 -68 193 -80 380 -80 155 1 163 2 255 33 124 43 215 98 307 186 133
125 205 247 244 414 18 73 20 108 16 222 -5 154 -24 226 -88 350 -160 307
-513 487 -859 440z m337 -34 c94 -27 152 -56 146 -75 -4 -13 -3 -13 5 -2 8 11
20 8 68 -19 48 -28 54 -35 38 -41 -15 -6 -13 -8 12 -8 33 -1 73 -34 55 -46
-14 -8 -14 -35 -1 -35 5 0 7 7 4 15 -10 24 13 17 51 -16 27 -24 33 -35 25 -44
-8 -9 -8 -15 0 -20 5 -3 10 -1 10 4 0 18 14 12 29 -10 8 -13 9 -24 3 -28 -5
-3 -12 -17 -16 -31 -6 -24 -6 -24 6 -5 18 28 42 21 60 -18 13 -29 13 -33 -5
-50 -10 -10 -15 -22 -11 -25 3 -4 9 -1 11 6 10 28 39 11 55 -33 14 -36 14 -45
4 -45 -8 0 -16 -7 -20 -15 -3 -8 -1 -15 4 -15 6 0 10 5 10 11 0 6 7 3 16 -5
21 -22 35 -74 22 -82 -7 -4 -6 -9 1 -14 7 -3 14 -22 17 -42 5 -30 3 -36 -15
-41 -12 -3 -21 -11 -21 -17 0 -9 3 -10 13 -1 18 14 27 4 27 -29 0 -23 -5 -29
-31 -34 -63 -12 -83 -7 -102 25 -19 35 -39 34 -47 -2 -6 -24 -6 -24 -23 8 -25
48 -22 88 9 112 20 16 23 21 10 21 -56 0 -76 -49 -47 -116 23 -52 48 -66 68
-38 12 16 15 17 23 4 14 -23 12 -30 -9 -30 -27 0 -34 -15 -27 -53 7 -34 44
-102 52 -94 3 2 -3 21 -12 40 -14 30 -15 39 -4 52 15 18 49 20 54 3 3 -7 7
-25 10 -40 7 -30 26 -40 21 -10 -15 75 -13 72 -55 72 -22 0 -40 4 -40 10 0 9
26 15 108 24 l42 4 0 -34 c0 -40 -5 -42 -32 -11 -11 12 -16 15 -12 7 4 -8 14
-23 22 -32 11 -13 13 -29 7 -65 -7 -49 -41 -151 -55 -167 -5 -5 -58 35 -118
89 l-110 97 5 101 c7 124 -6 193 -54 289 -99 198 -341 325 -551 289 -37 -6
-78 -14 -92 -18 -23 -6 -24 -5 -10 12 8 11 -4 4 -27 -14 -25 -20 -48 -31 -57
-28 -9 4 -16 1 -16 -6 0 -7 -15 -22 -33 -35 -26 -18 -33 -20 -35 -7 -4 18 -18
20 -28 4 -3 -6 -1 -15 7 -20 11 -6 9 -12 -6 -29 -10 -11 -25 -18 -32 -15 -8 3
-11 0 -7 -6 3 -6 -3 -20 -14 -32 -60 -64 -122 -226 -122 -317 0 -17 -4 -29 -9
-25 -5 3 -12 1 -16 -4 -3 -5 1 -13 8 -18 18 -10 30 -70 16 -79 -6 -3 -3 -11 8
-19 17 -13 17 -15 -5 -37 -17 -18 -22 -19 -22 -6 0 9 -10 18 -22 21 -13 4 -32
13 -43 21 -17 13 -18 17 -6 40 11 20 12 31 3 51 -7 15 -9 37 -6 49 3 13 -1 37
-10 54 -11 21 -13 33 -5 38 19 12 32 -14 39 -78 5 -49 8 -58 14 -38 10 36 2
108 -18 154 -9 21 -16 42 -16 46 0 4 -7 13 -15 20 -13 11 -13 8 0 -30 8 -23
15 -46 15 -51 0 -14 -28 -11 -33 4 -4 9 -8 9 -15 -1 -6 -10 -23 -12 -55 -9
-26 3 -49 1 -52 -4 -4 -5 6 -10 22 -10 15 -1 35 -3 43 -4 8 -1 21 -3 28 -4 8
0 12 -9 10 -18 -3 -15 -15 -18 -67 -20 l-64 -2 6 57 c13 120 82 276 171 388
109 137 259 235 427 280 128 34 313 34 436 0z m-247 -265 c0 -5 -9 -13 -21
-16 -11 -4 -65 -40 -119 -81 -157 -118 -232 -217 -250 -330 -14 -87 -7 -104
45 -104 24 0 47 -4 50 -10 9 -14 -42 -333 -61 -380 -14 -34 -59 -78 -70 -68
-2 3 3 23 12 46 38 97 -41 175 -147 143 -52 -16 -58 -30 -9 -24 44 6 124 -12
140 -32 15 -18 -15 -90 -48 -115 -13 -11 -36 -20 -51 -20 -28 0 -81 28 -119
63 -35 33 -29 -5 8 -41 46 -46 117 -77 177 -77 45 0 57 4 83 31 17 17 37 48
44 69 l14 38 20 -45 c11 -25 25 -49 31 -52 20 -13 11 -26 -18 -26 -38 0 -64
-25 -55 -54 11 -37 46 -66 124 -104 67 -32 83 -36 150 -35 113 2 130 2 195 0
51 -2 72 4 143 37 110 53 156 108 120 144 -7 7 -24 12 -39 12 -36 0 -43 13
-19 35 11 10 24 33 31 53 l11 35 27 -54 c44 -90 113 -109 216 -59 55 27 105
72 105 96 0 16 -2 16 -22 -3 -38 -35 -92 -63 -120 -63 -48 0 -126 113 -95 138
24 19 89 34 133 30 38 -3 42 -1 28 9 -10 7 -32 16 -51 19 -76 14 -133 -28
-133 -98 0 -24 7 -55 14 -70 21 -40 -4 -38 -38 2 -32 39 -40 69 -67 259 -24
168 -22 175 34 168 22 -3 29 1 34 21 10 43 -5 133 -33 191 -36 73 -154 189
-267 261 -47 30 -86 58 -86 61 -1 4 31 1 69 -7 199 -38 363 -192 415 -391 17
-63 19 -177 6 -235 l-9 -38 97 -84 c53 -46 106 -95 118 -108 l23 -24 -38 -64
c-49 -85 -169 -205 -262 -263 -342 -211 -775 -155 -1047 137 -63 68 -144 187
-142 211 0 5 51 48 114 95 l115 85 -8 45 c-24 150 4 297 80 410 73 110 201
195 338 224 82 18 80 18 80 7z m123 -72 c217 -145 297 -250 297 -389 l0 -60
-395 0 -395 0 -6 26 c-10 37 12 131 42 182 40 68 138 160 250 235 54 37 103
67 107 67 4 0 49 -28 100 -61z m-752 -415 c0 -16 0 -38 0 -49 1 -39 0 -50 -6
-77 -6 -24 -3 -29 34 -47 42 -22 44 -25 33 -52 -7 -18 -146 -129 -161 -129
-21 0 -70 228 -71 332 0 36 1 38 31 34 17 -1 35 -9 40 -17 7 -11 9 -11 9 4 0
22 29 22 45 0 11 -15 13 -13 20 16 8 39 27 28 26 -15z m959 -69 c0 -9 -6 -12
-15 -9 -8 4 -17 -1 -21 -10 -3 -9 -15 -16 -26 -16 -11 0 -28 -4 -38 -10 -13
-7 -21 -6 -30 5 -8 10 -31 14 -73 14 -52 -1 -68 -6 -111 -36 -33 -22 -58 -33
-73 -30 -27 5 -27 1 -8 -33 11 -19 14 -21 15 -8 0 20 21 33 70 41 32 6 34 6
16 -8 -11 -8 -25 -15 -30 -15 -6 0 -5 -4 3 -9 12 -8 12 -12 -3 -26 -9 -10 -15
-19 -13 -21 7 -7 37 8 37 18 0 5 9 7 19 3 16 -5 19 -1 18 27 -2 28 1 33 20 31
17 -2 23 4 28 27 4 17 12 30 19 30 21 0 54 -29 60 -55 8 -32 26 -32 56 0 25
27 55 33 63 13 3 -7 6 0 6 15 2 52 18 18 25 -50 4 -37 9 -83 13 -102 6 -33 5
-34 -25 -29 -35 5 -42 -4 -42 -58 0 -45 -37 -84 -80 -84 -19 0 -29 -5 -28 -12
2 -8 -5 -12 -17 -10 -15 2 -17 1 -6 -7 8 -5 21 -7 29 -3 10 3 13 1 8 -6 -4 -7
-3 -12 3 -12 6 0 15 9 21 20 6 11 23 26 39 35 16 8 44 40 62 72 l34 58 3 -58
c4 -70 -10 -96 -68 -129 -22 -13 -40 -29 -40 -35 0 -16 -16 -17 -25 -3 -4 6
-11 7 -17 4 -7 -5 -2 -11 12 -16 22 -8 22 -9 5 -28 -10 -11 -26 -20 -36 -20
-24 0 -31 -14 -23 -45 5 -20 9 -23 20 -14 8 6 14 17 14 23 0 6 12 24 25 39 24
27 26 28 82 18 55 -11 71 -17 62 -25 -13 -12 -150 -75 -184 -85 -21 -6 -56 -8
-77 -5 l-38 7 6 51 c5 45 -10 145 -21 134 -2 -2 1 -22 6 -45 9 -33 8 -48 -6
-77 -10 -20 -21 -36 -25 -36 -18 0 -42 73 -36 108 4 27 3 31 -4 17 -12 -28
-12 -102 0 -126 9 -16 7 -21 -17 -30 -15 -6 -47 -9 -70 -6 -42 4 -223 84 -223
98 0 4 31 12 69 19 61 10 68 14 64 31 -3 11 -15 25 -27 31 -41 20 -86 72 -92
104 -6 31 2 111 28 286 l11 78 291 2 c160 2 294 2 299 0 4 -2 7 -10 7 -17z"/>
<path d="M800 1599 c0 -5 5 -7 10 -4 6 3 10 8 10 11 0 2 -4 4 -10 4 -5 0 -10
-5 -10 -11z"/>
<path d="M940 1599 c0 -5 5 -7 10 -4 6 3 10 8 10 11 0 2 -4 4 -10 4 -5 0 -10
-5 -10 -11z"/>
<path d="M660 1591 c0 -6 5 -13 10 -16 7 -4 7 -12 0 -25 -10 -19 -4 -50 10
-50 19 0 40 13 40 25 0 6 -9 20 -19 29 -11 10 -17 24 -14 32 3 8 -1 14 -11 14
-9 0 -16 -4 -16 -9z m30 -61 c0 -5 -2 -10 -4 -10 -3 0 -8 5 -11 10 -3 6 -1 10
4 10 6 0 11 -4 11 -10z"/>
<path d="M834 1565 c-8 -19 -19 -35 -24 -35 -15 0 -12 -26 4 -39 8 -7 18 -25
21 -41 6 -26 10 -29 36 -23 21 4 29 2 30 -8 0 -8 4 -4 9 9 5 12 16 22 25 22 8
0 15 6 16 13 0 6 3 31 5 54 4 36 2 42 -18 49 -13 3 -25 10 -28 14 -3 4 -18 10
-33 14 -25 6 -29 3 -43 -29z m56 -26 c0 -5 -4 -9 -10 -9 -5 0 -10 7 -10 16 0
8 5 12 10 9 6 -3 10 -10 10 -16z m32 -11 c-7 -7 -12 -8 -12 -2 0 14 12 26 19
19 2 -3 -1 -11 -7 -17z m-52 -14 c0 -2 -7 -4 -15 -4 -8 0 -15 4 -15 10 0 5 7
7 15 4 8 -4 15 -8 15 -10z m30 2 c0 -3 -4 -8 -10 -11 -5 -3 -10 -1 -10 4 0 6
5 11 10 11 6 0 10 -2 10 -4z m20 -26 c0 -5 -4 -10 -10 -10 -5 0 -10 5 -10 10
0 6 5 10 10 10 6 0 10 -4 10 -10z m-50 -15 c-7 -9 -15 -13 -17 -11 -7 7 7 26
19 26 6 0 6 -6 -2 -15z"/>
<path d="M522 1516 c-40 -41 -72 -77 -72 -82 0 -4 1 -5 3 -3 1 2 36 39 77 82
40 42 71 77 68 77 -2 0 -37 -33 -76 -74z"/>
<path d="M1111 1571 c-13 -23 10 -47 34 -37 12 4 14 10 5 25 -15 30 -28 34
-39 12z m29 -21 c0 -5 -7 -7 -15 -4 -8 4 -15 8 -15 10 0 2 7 4 15 4 8 0 15 -4
15 -10z"/>
<path d="M620 1565 c0 -8 4 -15 9 -15 5 0 11 7 15 15 3 9 0 15 -9 15 -8 0 -15
-7 -15 -15z"/>
<path d="M1055 1520 c-3 -6 1 -7 9 -4 18 7 21 14 7 14 -6 0 -13 -4 -16 -10z"/>
<path d="M580 1500 c0 -4 9 -10 20 -13 11 -3 20 -2 20 3 0 4 -9 10 -20 13 -11
3 -20 2 -20 -3z"/>
<path d="M1161 1506 c2 -2 33 -6 69 -9 41 -3 54 -2 35 3 -31 8 -112 13 -104 6z"/>
<path d="M390 1481 c-15 -28 -12 -33 10 -19 21 13 27 38 10 38 -5 0 -14 -9
-20 -19z"/>
<path d="M688 1482 c-16 -2 -28 -7 -28 -11 0 -5 -8 -11 -17 -15 -10 -3 -26
-10 -35 -16 -10 -5 -24 -13 -32 -17 -7 -5 -31 -20 -52 -34 -53 -35 -82 -41
-116 -23 -16 8 -33 12 -38 9 -13 -8 -13 -41 0 -65 6 -11 6 -21 1 -24 -5 -3
-12 -30 -16 -59 -8 -60 -20 -78 -43 -70 -13 5 -14 3 -6 -6 26 -28 48 -8 60 53
11 56 36 92 55 80 5 -3 6 2 3 11 -4 8 -17 18 -30 21 -24 6 -32 28 -14 39 5 3
21 -2 35 -11 22 -14 32 -15 65 -5 22 6 52 22 67 34 15 13 47 32 70 42 23 11
44 28 47 38 3 14 10 17 24 12 11 -3 23 -1 27 5 9 15 6 16 -27 12z"/>
<path d="M1030 1480 c0 -5 5 -10 11 -10 5 0 7 5 4 10 -3 6 -8 10 -11 10 -2 0
-4 -4 -4 -10z"/>
<path d="M545 1460 c-4 -6 -11 -8 -16 -5 -5 4 -9 -1 -9 -9 0 -23 27 -20 33 4
6 22 2 26 -8 10z"/>
<path d="M1085 1460 c3 -5 8 -10 11 -10 2 0 4 5 4 10 0 6 -5 10 -11 10 -5 0
-7 -4 -4 -10z"/>
<path d="M789 1443 c-13 -16 -12 -17 4 -4 9 7 17 15 17 17 0 8 -8 3 -21 -13z"/>
<path d="M975 1450 c-3 -5 -1 -10 4 -10 6 0 11 5 11 10 0 6 -2 10 -4 10 -3 0
-8 -4 -11 -10z"/>
<path d="M1017 1453 c-10 -9 -9 -61 1 -67 5 -3 21 4 38 15 40 26 56 24 76 -10
16 -29 65 -51 116 -51 12 0 31 -9 42 -20 11 -11 29 -20 40 -20 11 0 29 -9 41
-21 11 -11 22 -19 24 -17 9 8 -49 108 -62 108 -12 0 -12 -4 1 -22 9 -12 16
-26 16 -30 0 -15 -30 -8 -48 10 -11 11 -41 24 -68 31 -36 8 -58 22 -81 49
l-33 37 -41 -22 c-47 -26 -63 -22 -56 13 5 26 4 28 -6 17z"/>
<path d="M1160 1449 c0 -5 12 -9 27 -9 30 0 27 9 -6 15 -11 2 -21 0 -21 -6z"/>
<path d="M1236 1453 c-11 -11 -6 -23 9 -23 8 0 15 4 15 9 0 13 -16 22 -24 14z"/>
<path d="M679 1403 c-13 -16 -12 -17 4 -4 9 7 17 15 17 17 0 8 -8 3 -21 -13z"/>
<path d="M300 1397 c0 -23 15 -28 36 -12 10 8 14 15 7 15 -6 0 -18 3 -27 6
-10 4 -16 1 -16 -9z"/>
<path d="M200 1321 c0 -5 9 -12 19 -16 11 -3 36 -17 56 -31 20 -13 35 -19 33
-12 -4 12 -84 66 -100 67 -5 1 -8 -3 -8 -8z"/>
<path d="M1166 1314 c-8 -21 -8 -24 5 -24 5 0 8 4 5 9 -4 5 -1 11 6 13 8 3 9
6 1 11 -6 4 -14 0 -17 -9z"/>
<path d="M1447 1315 c3 -8 9 -12 14 -9 12 7 11 11 -5 17 -10 4 -13 1 -9 -8z"/>
<path d="M500 1306 c0 -9 5 -16 10 -16 6 0 10 4 10 9 0 6 -4 13 -10 16 -5 3
-10 -1 -10 -9z"/>
<path d="M173 1277 c2 -6 28 -22 58 -35 64 -28 54 -13 -14 22 -26 13 -46 19
-44 13z"/>
<path d="M1230 1274 c0 -9 5 -14 12 -12 18 6 21 28 4 28 -9 0 -16 -7 -16 -16z"/>
<path d="M1300 1253 c-27 -34 -21 -49 19 -45 48 4 69 -12 73 -55 2 -30 10 -42
35 -58 18 -11 30 -26 28 -33 -3 -7 12 -30 31 -52 20 -22 31 -40 25 -40 -15 0
-5 -17 17 -29 15 -8 17 -3 12 57 -3 41 -10 67 -18 70 -10 3 -12 -5 -6 -34 l7
-39 -27 25 c-19 17 -25 31 -22 47 5 16 1 23 -14 28 -28 9 -53 50 -45 73 9 31
-20 52 -71 52 -48 0 -55 11 -27 42 9 10 13 18 10 18 -3 0 -15 -12 -27 -27z"/>
<path d="M195 1200 c-4 -6 -3 -16 3 -22 6 -6 12 -6 17 2 4 6 3 16 -3 22 -6 6
-12 6 -17 -2z"/>
<path d="M276 1192 c-9 -11 -14 -26 -11 -34 6 -16 -21 -45 -32 -34 -4 4 -1 11
6 15 9 6 10 11 2 15 -15 10 -31 -2 -31 -21 0 -9 12 -40 27 -70 27 -54 28 -55
9 -69 -19 -14 -19 -14 1 -14 34 0 36 15 8 70 -24 48 -25 50 -6 50 26 0 42 30
29 53 -7 14 -5 22 9 32 10 7 15 16 12 19 -3 3 -13 -2 -23 -12z"/>
<path d="M1460 1176 c0 -2 7 -9 15 -16 9 -7 15 -8 15 -2 0 5 -7 12 -15 16 -8
3 -15 4 -15 2z"/>
<path d="M1315 1160 c-3 -5 -1 -10 4 -10 6 0 11 5 11 10 0 6 -2 10 -4 10 -3 0
-8 -4 -11 -10z"/>
<path d="M110 1152 c0 -15 11 -21 27 -15 12 5 12 7 1 14 -17 11 -28 11 -28 1z"/>
<path d="M321 1074 c0 -11 3 -14 6 -6 3 7 2 16 -1 19 -3 4 -6 -2 -5 -13z"/>
<path d="M1370 1080 c0 -5 7 -10 15 -10 8 0 15 5 15 10 0 6 -7 10 -15 10 -8 0
-15 -4 -15 -10z"/>
<path d="M87 1052 c6 -15 36 -32 57 -32 11 0 15 8 14 25 -2 22 -6 25 -39 23
-25 -2 -35 -7 -32 -16z m53 -12 c0 -5 -4 -10 -10 -10 -5 0 -10 5 -10 10 0 6 5
10 10 10 6 0 10 -4 10 -10z"/>
<path d="M1600 1025 c0 -7 -8 -19 -17 -24 -10 -6 -13 -11 -7 -11 11 0 44 32
44 43 0 4 -4 7 -10 7 -5 0 -10 -7 -10 -15z"/>
<path d="M1380 1016 c0 -2 7 -9 15 -16 13 -11 14 -10 9 4 -5 14 -24 23 -24 12z"/>
<path d="M1576 937 c3 -10 9 -15 12 -12 3 3 0 11 -7 18 -10 9 -11 8 -5 -6z"/>
<path d="M1609 933 c-13 -16 -12 -17 4 -4 16 13 21 21 13 21 -2 0 -10 -8 -17
-17z"/>
<path d="M1472 920 c-7 -11 -9 -20 -4 -20 10 0 32 22 32 32 0 15 -15 8 -28
-12z"/>
<path d="M1550 881 c0 -5 5 -13 10 -16 6 -3 10 -2 10 4 0 5 -4 13 -10 16 -5 3
-10 2 -10 -4z"/>
<path d="M1412 788 c6 -18 28 -21 28 -4 0 9 -7 16 -16 16 -9 0 -14 -5 -12 -12z"/>
<path d="M1420 745 c0 -9 5 -15 11 -13 6 2 11 8 11 13 0 5 -5 11 -11 13 -6 2
-11 -4 -11 -13z"/>
<path d="M1400 691 c0 -5 7 -15 17 -22 15 -13 15 -12 4 9 -12 23 -21 28 -21
13z"/>
<path d="M1435 690 c4 -6 11 -8 16 -5 14 9 11 15 -7 15 -8 0 -12 -5 -9 -10z"/>
<path d="M920 1255 c0 -8 5 -15 10 -15 6 0 10 7 10 15 0 8 -4 15 -10 15 -5 0
-10 -7 -10 -15z"/>
<path d="M780 1251 c0 -6 -7 -8 -15 -5 -10 4 -15 0 -15 -13 0 -10 -6 -25 -12
-33 -7 -8 -1 -5 13 8 14 12 31 22 37 22 15 0 16 16 2 25 -5 3 -10 2 -10 -4z"/>
<path d="M831 1204 c-12 -34 -25 -42 -36 -24 -11 18 -23 11 -34 -21 -8 -23
-15 -30 -27 -25 -12 5 -15 2 -10 -10 3 -8 6 -18 6 -20 0 -2 4 -4 10 -4 5 0 17
17 25 37 12 28 18 34 27 25 18 -18 28 -15 38 13 5 14 16 25 25 25 19 0 20 26
2 33 -9 3 -18 -8 -26 -29z"/>
<path d="M891 1204 c0 -11 3 -14 6 -6 3 7 2 16 -1 19 -3 4 -6 -2 -5 -13z"/>
<path d="M933 1189 c-4 -20 -10 -28 -19 -25 -18 7 -18 -8 0 -23 11 -9 19 -7
38 12 13 13 31 27 39 30 11 5 10 9 -5 21 -30 24 -46 19 -53 -15z m19 -11 c-7
-7 -12 -8 -12 -2 0 14 12 26 19 19 2 -3 -1 -11 -7 -17z"/>
<path d="M865 1150 c-4 -6 -21 -20 -39 -31 -17 -10 -26 -19 -19 -19 22 0 62
22 68 38 7 18 0 27 -10 12z"/>
<path d="M760 1029 c-27 -15 -29 -18 -10 -13 14 3 32 12 40 20 19 19 12 17
-30 -7z"/>
<path d="M1100 1040 c0 -5 4 -10 9 -10 6 0 13 5 16 10 3 6 -1 10 -9 10 -9 0
-16 -4 -16 -10z"/>
<path d="M651 1024 c1 -10 5 -30 9 -44 7 -21 8 -19 6 12 -1 21 -6 41 -9 45 -4
3 -7 -2 -6 -13z"/>
<path d="M835 1030 c3 -5 10 -10 16 -10 5 0 9 5 9 10 0 6 -7 10 -16 10 -8 0
-12 -4 -9 -10z"/>
<path d="M900 1028 c0 -15 18 -17 36 -4 17 13 17 14 -9 13 -15 -1 -27 -5 -27
-9z"/>
<path d="M1140 1030 c0 -5 5 -10 10 -10 6 0 10 5 10 10 0 6 -4 10 -10 10 -5 0
-10 -4 -10 -10z"/>
<path d="M540 1020 c0 -5 4 -10 9 -10 6 0 13 5 16 10 3 6 -1 10 -9 10 -9 0
-16 -4 -16 -10z"/>
<path d="M610 1019 c0 -5 5 -7 10 -4 6 3 10 8 10 11 0 2 -4 4 -10 4 -5 0 -10
-5 -10 -11z"/>
<path d="M950 999 c0 -5 5 -7 10 -4 6 3 10 8 10 11 0 2 -4 4 -10 4 -5 0 -10
-5 -10 -11z"/>
<path d="M1181 994 c0 -11 3 -14 6 -6 3 7 2 16 -1 19 -3 4 -6 -2 -5 -13z"/>
<path d="M850 990 c0 -5 5 -10 10 -10 6 0 10 5 10 10 0 6 -4 10 -10 10 -5 0
-10 -4 -10 -10z"/>
<path d="M705 974 c7 -25 -10 -41 -62 -60 -27 -9 -31 -13 -16 -14 54 -1 103
46 83 78 -10 15 -10 14 -5 -4z"/>
<path d="M1041 974 c0 -11 3 -14 6 -6 3 7 2 16 -1 19 -3 4 -6 -2 -5 -13z"/>
<path d="M1077 979 c8 -8 16 -8 30 0 16 9 14 10 -11 11 -22 0 -27 -3 -19 -11z"/>
<path d="M496 967 c3 -10 9 -15 12 -12 3 3 0 11 -7 18 -10 9 -11 8 -5 -6z"/>
<path d="M612 968 c2 -5 8 -9 13 -9 5 0 11 4 13 9 1 5 -4 9 -13 9 -9 0 -14 -4
-13 -9z"/>
<path d="M740 960 c0 -13 5 -20 13 -17 6 2 12 10 12 17 0 7 -6 15 -12 18 -8 2
-13 -5 -13 -18z"/>
<path d="M905 959 c-4 -11 -13 -18 -20 -16 -7 3 -18 0 -25 -6 -9 -9 -15 -7
-27 10 -14 21 -43 22 -43 1 0 -6 7 -7 15 -4 9 3 18 -1 21 -8 6 -15 74 -18 74
-4 0 4 7 8 15 8 16 0 21 25 6 35 -5 3 -13 -4 -16 -16z"/>
<path d="M532 958 c-8 -10 -3 -14 20 -15 17 -1 29 -1 27 0 -2 2 -11 8 -20 15
-13 10 -19 10 -27 0z"/>
<path d="M950 951 c0 -11 6 -22 13 -25 19 -8 -24 -38 -50 -33 -15 3 -20 0 -16
-10 9 -22 31 -15 73 23 21 20 44 33 50 29 5 -3 10 -2 10 3 0 17 -13 22 -28 10
-11 -10 -17 -9 -27 5 -16 22 -25 22 -25 -2z"/>
<path d="M1150 956 c0 -21 -18 -30 -34 -17 -9 8 -17 7 -29 -2 -15 -10 -13 -12
15 -11 18 0 41 4 51 9 18 8 24 35 7 35 -5 0 -10 -6 -10 -14z"/>
<path d="M596 925 c-10 -8 -23 -12 -27 -9 -5 3 -9 0 -9 -5 0 -18 26 -12 45 9
21 23 18 25 -9 5z"/>
<path d="M745 914 c-11 -8 -25 -12 -32 -10 -7 3 -13 1 -13 -4 0 -17 36 -11 55
10 21 24 18 25 -10 4z"/>
<path d="M777 892 c-14 -13 -35 -17 -91 -17 -41 0 -72 -3 -70 -6 7 -12 85 -17
117 -8 37 10 75 35 66 43 -3 3 -13 -2 -22 -12z"/>
<path d="M1046 895 c-11 -8 -15 -15 -9 -15 6 0 16 7 23 15 16 19 11 19 -14 0z"/>
<path d="M826 890 c-11 -3 -15 -9 -10 -13 10 -6 42 9 34 16 -3 3 -14 1 -24 -3z"/>
<path d="M1000 890 c-9 -6 -10 -10 -3 -10 6 0 15 5 18 10 8 12 4 12 -15 0z"/>
<path d="M1110 890 c-8 -5 -12 -11 -9 -14 2 -3 11 -1 19 4 8 5 12 11 9 14 -2
3 -11 1 -19 -4z"/>
<path d="M538 883 c-10 -2 -18 -8 -18 -13 0 -4 9 -6 20 -3 11 3 20 9 20 14 0
5 -1 8 -2 8 -2 -1 -11 -3 -20 -6z"/>
<path d="M69 791 c14 -27 27 -48 29 -46 5 5 -36 83 -47 89 -5 3 3 -16 18 -43z"/>
<path d="M156 817 c3 -10 9 -15 12 -12 3 3 0 11 -7 18 -10 9 -11 8 -5 -6z"/>
<path d="M117 794 c-8 -8 1 -24 14 -24 5 0 9 7 9 15 0 15 -12 20 -23 9z"/>
<path d="M132 699 c2 -6 8 -10 13 -10 5 0 11 4 13 10 2 6 -4 11 -13 11 -9 0
-15 -5 -13 -11z"/>
<path d="M90 685 c0 -9 5 -15 11 -13 6 2 11 8 11 13 0 5 -5 11 -11 13 -6 2
-11 -4 -11 -13z"/>
<path d="M161 624 c-12 -14 -11 -15 8 -12 12 1 22 7 22 13 1 16 -15 15 -30 -1z"/>
<path d="M680 793 c-30 -2 -59 -9 -65 -14 -7 -7 -5 -8 5 -4 10 3 19 -5 28 -25
16 -35 28 -38 37 -11 3 11 14 23 25 26 18 6 50 37 34 33 -5 -1 -34 -3 -64 -5z"/>
<path d="M596 747 c-5 -9 -6 -29 -3 -42 2 -14 0 -28 -4 -31 -11 -6 -10 -68 2
-109 7 -24 7 -20 4 19 -4 43 -2 51 25 76 29 27 29 28 10 45 -10 9 -21 27 -23
39 -3 19 -4 19 -11 3z"/>
<path d="M735 751 c-27 -6 -28 -8 -9 -14 23 -8 54 0 54 14 0 10 -1 10 -45 0z"/>
<path d="M970 710 c0 -8 5 -22 10 -30 9 -13 10 -13 10 0 0 8 -5 22 -10 30 -9
13 -10 13 -10 0z"/>
<path d="M1120 701 c0 -8 -7 -10 -20 -6 -14 5 -20 2 -20 -9 0 -9 6 -16 14 -16
17 0 41 28 32 37 -3 3 -6 1 -6 -6z"/>
<path d="M663 694 c3 -4 2 -15 -4 -25 -11 -22 1 -25 30 -7 18 11 18 13 3 25
-17 13 -41 18 -29 7z"/>
<path d="M917 664 c-3 -4 -4 -17 -1 -29 7 -27 -15 -35 -98 -35 -51 0 -56 -2
-51 -20 3 -10 16 -26 30 -35 27 -18 29 -60 2 -60 -9 0 -24 -6 -33 -14 -9 -8
-28 -11 -43 -8 -26 5 -26 4 -8 -9 25 -19 55 -18 84 2 28 20 52 73 45 101 -4
14 0 22 13 25 10 3 27 9 38 14 18 7 18 6 6 -9 -7 -9 -20 -17 -29 -17 -8 0 -13
-3 -9 -6 10 -11 47 7 62 30 14 22 8 85 -8 70z"/>
<path d="M967 654 c-4 -4 -7 -13 -7 -21 0 -18 27 -16 34 3 3 8 2 13 -3 9 -5
-3 -11 0 -13 6 -2 5 -7 7 -11 3z"/>
<path d="M710 643 c0 -4 4 -15 10 -23 6 -9 5 -17 -3 -22 -21 -13 -35 -9 -42
12 -3 11 -10 20 -14 20 -14 0 -41 -84 -41 -127 0 -35 -3 -42 -25 -47 -30 -8
-33 -26 -5 -33 10 -3 26 -16 35 -29 10 -15 25 -24 42 -24 31 0 83 -45 83 -72
0 -14 -8 -18 -36 -18 -30 0 -34 -3 -29 -19 4 -15 0 -21 -17 -24 -17 -3 -15 -5
10 -6 17 0 32 -5 32 -11 0 -5 3 -10 8 -10 14 0 43 88 41 126 -2 22 3 49 10 62
7 14 8 22 1 22 -5 0 -10 -4 -10 -8 0 -10 -45 -32 -66 -32 -30 0 -64 47 -64 89
0 55 17 87 55 106 43 20 46 19 36 -7 -5 -13 -15 -22 -22 -20 -6 2 -18 1 -26
-2 -11 -5 -8 -12 10 -32 l25 -26 21 21 c13 13 19 27 14 34 -4 7 -8 32 -8 56 0
26 -5 46 -12 48 -7 3 -13 1 -13 -4z"/>
<path d="M1055 625 c17 -9 36 -23 43 -32 6 -9 12 -12 12 -6 0 16 -49 53 -69
53 -9 0 -3 -7 14 -15z"/>
<path d="M1125 620 c10 -11 20 -18 23 -15 7 6 -18 35 -31 35 -5 0 -2 -9 8 -20z"/>
<path d="M1024 589 c-3 -6 -30 -22 -60 -35 -29 -13 -58 -32 -63 -43 -6 -11
-20 -23 -31 -26 -30 -10 -24 -31 13 -45 17 -8 41 -20 51 -29 17 -14 17 -12 -2
13 -12 16 -22 37 -22 48 0 29 54 79 77 71 29 -10 43 -24 43 -45 0 -23 -29 -36
-41 -17 -7 11 -9 11 -9 -3 0 -26 16 -30 38 -10 13 11 22 35 25 69 6 50 -4 76
-19 52z"/>
<path d="M560 514 c0 -8 5 -12 10 -9 6 4 8 11 5 16 -9 14 -15 11 -15 -7z"/>
<path d="M940 480 c0 -5 5 -10 10 -10 6 0 10 5 10 10 0 6 -4 10 -10 10 -5 0
-10 -4 -10 -10z"/>
<path d="M1134 445 c-6 -19 -7 -35 -3 -35 10 0 23 44 17 60 -1 5 -8 -6 -14
-25z"/>
<path d="M678 433 c7 -3 16 -2 19 1 4 3 -2 6 -13 5 -11 0 -14 -3 -6 -6z"/>
<path d="M800 375 c-24 -14 -24 -14 -4 -15 12 0 24 7 28 15 6 18 7 18 -24 0z"/>
<path d="M916 364 c-6 -15 -4 -15 11 -3 10 7 20 15 22 16 2 2 -3 3 -11 3 -9 0
-19 -7 -22 -16z"/>
<path d="M680 326 c0 -8 4 -17 9 -20 5 -4 7 3 4 14 -6 23 -13 26 -13 6z"/>
<path d="M1070 240 c-13 -8 -13 -10 2 -10 9 0 20 5 23 10 8 13 -5 13 -25 0z"/>
</g>
</svg>
